<?xml version="1.0" encoding="utf-8"?>
<!-- Generator: Adobe Illustrator 16.0.0, SVG Export Plug-In . SVG Version: 6.00 Build 0)  -->
<!DOCTYPE svg PUBLIC "-//W3C//DTD SVG 1.1//EN" "http://www.w3.org/Graphics/SVG/1.1/DTD/svg11.dtd">
<svg version="1.1" id="Layer_1" xmlns="http://www.w3.org/2000/svg" xmlns:xlink="http://www.w3.org/1999/xlink" x="0px" y="0px"
	 width="20px" height="21px" viewBox="0 0 20 21" enable-background="new 0 0 20 21" xml:space="preserve">
<path d="M19.544,3.444C19.24,3.148,18.879,3,18.462,3h-1.539V1.874c0-0.515-0.188-0.957-0.565-1.324
	C15.982,0.183,15.53-0.001,15-0.001h-0.769c-0.529,0-0.981,0.185-1.358,0.551c-0.377,0.368-0.565,0.809-0.565,1.324V3H7.692V1.874
	c0-0.515-0.188-0.957-0.565-1.324C6.75,0.183,6.298-0.001,5.769-0.001H5c-0.529,0-0.982,0.185-1.358,0.551
	C3.265,0.917,3.076,1.359,3.076,1.874V3H1.538C1.121,3,0.761,3.148,0.456,3.444C0.151,3.742,0,4.093,0,4.499v15
	c0,0.407,0.152,0.758,0.457,1.055C0.761,20.851,1.121,21,1.538,21h16.924c0.417,0,0.777-0.149,1.082-0.445
	C19.848,20.257,20,19.906,20,19.499v-15C20,4.093,19.849,3.742,19.544,3.444z M5,19.499H1.538v-3.375H5V19.499z M5,15.374H1.538
	v-3.75H5V15.374z M5,10.875H1.538V7.499H5V10.875z M4.729,5.513C4.653,5.439,4.615,5.351,4.615,5.249V1.874
	c0-0.101,0.038-0.189,0.114-0.263C4.806,1.536,4.896,1.499,5,1.499h0.769c0.104,0,0.194,0.037,0.271,0.112
	c0.076,0.074,0.114,0.162,0.114,0.263v3.375c0,0.102-0.039,0.19-0.114,0.264C5.963,5.587,5.874,5.625,5.769,5.625H5
	C4.896,5.625,4.806,5.587,4.729,5.513z M9.615,19.499H5.769v-3.375h3.846V19.499z M9.615,15.374H5.769v-3.75h3.846V15.374z
	 M9.615,10.875H5.769V7.499h3.846V10.875z M14.231,19.499h-3.846v-3.375h3.846V19.499z M14.231,15.374h-3.846v-3.75h3.846V15.374z
	 M14.231,10.875h-3.846V7.499h3.846V10.875z M13.96,5.513c-0.076-0.074-0.114-0.162-0.114-0.264V1.874
	c0-0.101,0.038-0.189,0.114-0.263c0.076-0.075,0.167-0.112,0.271-0.112H15c0.104,0,0.194,0.037,0.271,0.112
	c0.076,0.074,0.114,0.162,0.114,0.263v3.375c0,0.102-0.038,0.19-0.114,0.264C15.195,5.587,15.104,5.625,15,5.625h-0.77
	C14.127,5.625,14.037,5.587,13.96,5.513z M18.462,19.499H15v-3.375h3.461V19.499z M18.462,15.374H15v-3.75h3.461V15.374z
	 M18.462,10.875H15V7.499h3.461V10.875z"/>
</svg>
