<?xml version="1.0" encoding="utf-8"?>
<!-- Generator: Adobe Illustrator 16.0.0, SVG Export Plug-In . SVG Version: 6.00 Build 0)  -->
<!DOCTYPE svg PUBLIC "-//W3C//DTD SVG 1.1//EN" "http://www.w3.org/Graphics/SVG/1.1/DTD/svg11.dtd">
<svg version="1.1" id="Layer_1" xmlns="http://www.w3.org/2000/svg" xmlns:xlink="http://www.w3.org/1999/xlink" x="0px" y="0px"
	 width="15px" height="12px" viewBox="0 0 15 12" enable-background="new 0 0 15 12" xml:space="preserve">
<path d="M11.539,10.91c0,0.301,0.113,0.558,0.338,0.771C12.102,11.895,12.374,12,12.693,12
	c0.318,0,0.59-0.106,0.815-0.319c0.226-0.213,0.338-0.47,0.338-0.771s-0.113-0.558-0.338-0.771c-0.225-0.213-0.497-0.32-0.815-0.32
	c-0.319,0-0.591,0.107-0.816,0.32C11.651,10.352,11.539,10.608,11.539,10.91z"/>
<path d="M14.829,1.251c-0.114-0.108-0.25-0.162-0.405-0.162H3.596c-0.006-0.04-0.02-0.112-0.041-0.218
	c-0.021-0.105-0.038-0.188-0.049-0.25C3.494,0.557,3.472,0.482,3.438,0.394C3.406,0.306,3.367,0.236,3.321,0.186
	C3.276,0.134,3.216,0.09,3.141,0.053C3.066,0.016,2.98-0.002,2.884-0.002H0.577c-0.157,0-0.292,0.054-0.406,0.161
	C0.057,0.268,0,0.396,0,0.543c0,0.147,0.057,0.276,0.171,0.384s0.25,0.162,0.406,0.162h1.839l1.595,7.016
	c-0.012,0.022-0.073,0.13-0.185,0.324s-0.2,0.363-0.266,0.507C3.494,9.081,3.461,9.193,3.461,9.273c0,0.148,0.057,0.276,0.171,0.384
	c0.114,0.107,0.25,0.162,0.406,0.162h0.577h8.078h0.577c0.156,0,0.292-0.054,0.405-0.162c0.114-0.108,0.171-0.236,0.171-0.384
	s-0.057-0.276-0.171-0.384c-0.114-0.107-0.25-0.162-0.405-0.162H4.976C5.12,8.455,5.192,8.272,5.192,8.182
	c0-0.058-0.007-0.12-0.022-0.188C5.154,7.926,5.136,7.851,5.115,7.768C5.094,7.687,5.081,7.624,5.075,7.585l9.412-1.04
	c0.15-0.017,0.273-0.078,0.369-0.183C14.953,6.257,15,6.135,15,5.999V1.634C15,1.487,14.943,1.359,14.829,1.251z"/>
<path d="M3.461,10.91c0,0.301,0.113,0.558,0.338,0.771S4.296,12,4.615,12c0.318,0,0.59-0.106,0.815-0.319
	c0.226-0.213,0.338-0.47,0.338-0.771s-0.113-0.558-0.338-0.771c-0.225-0.213-0.497-0.32-0.815-0.32c-0.319,0-0.591,0.107-0.816,0.32
	C3.574,10.352,3.461,10.608,3.461,10.91z"/>
</svg>
