<?xml version="1.0" encoding="utf-8"?>
<!-- Generator: Adobe Illustrator 16.0.0, SVG Export Plug-In . SVG Version: 6.00 Build 0)  -->
<!DOCTYPE svg PUBLIC "-//W3C//DTD SVG 1.1//EN" "http://www.w3.org/Graphics/SVG/1.1/DTD/svg11.dtd">
<svg version="1.1" id="Layer_1" xmlns="http://www.w3.org/2000/svg" xmlns:xlink="http://www.w3.org/1999/xlink" x="0px" y="0px"
	 width="12px" height="12px" viewBox="0 0 12 12" enable-background="new 0 0 12 12" xml:space="preserve">
<path d="M6.905,7.641c-0.127-0.171-0.268-0.33-0.422-0.477c-0.154-0.147-0.308-0.28-0.461-0.4
	C5.868,6.644,5.727,6.528,5.6,6.417c-0.127-0.11-0.23-0.226-0.31-0.346C5.21,5.951,5.17,5.829,5.17,5.704
	c0-0.173,0.056-0.335,0.166-0.487c0.111-0.151,0.245-0.298,0.404-0.44C5.899,4.635,6.058,4.48,6.216,4.312
	C6.375,4.144,6.509,3.921,6.62,3.644c0.11-0.276,0.166-0.592,0.166-0.948c0-0.423-0.094-0.83-0.282-1.219
	c-0.187-0.39-0.452-0.693-0.793-0.909h0.974l0.973-0.57H4.507c-0.447,0-0.896,0.048-1.348,0.145C2.49,0.292,1.928,0.633,1.471,1.164
	C1.014,1.695,0.786,2.297,0.786,2.97c0,0.711,0.256,1.303,0.768,1.774C2.066,5.215,2.68,5.451,3.396,5.451
	c0.144,0,0.313-0.011,0.505-0.036c-0.01,0.039-0.026,0.09-0.051,0.155C3.827,5.635,3.808,5.687,3.793,5.726
	C3.779,5.764,3.767,5.81,3.757,5.866c-0.01,0.055-0.015,0.111-0.015,0.169c0,0.317,0.154,0.676,0.461,1.075
	C3.839,7.12,3.479,7.152,3.123,7.208s-0.729,0.142-1.118,0.26C1.615,7.585,1.267,7.756,0.959,7.979
	C0.651,8.203,0.42,8.468,0.267,8.776C0.089,9.132,0,9.457,0,9.75c0,0.322,0.072,0.614,0.217,0.876
	c0.144,0.262,0.329,0.476,0.555,0.642c0.226,0.166,0.487,0.305,0.782,0.418c0.296,0.112,0.589,0.193,0.88,0.242
	C2.725,11.976,3.012,12,3.295,12c1.289,0,2.298-0.315,3.029-0.945c0.673-0.587,1.009-1.265,1.009-2.034
	c0-0.273-0.04-0.53-0.119-0.768C7.136,8.015,7.032,7.811,6.905,7.641z M4.125,5.019c-0.245,0-0.478-0.063-0.699-0.188
	C3.204,4.706,3.017,4.543,2.863,4.344C2.709,4.145,2.574,3.92,2.459,3.67c-0.116-0.25-0.201-0.5-0.256-0.75
	C2.147,2.67,2.12,2.432,2.12,2.206c0-0.461,0.123-0.858,0.368-1.19c0.245-0.331,0.591-0.498,1.039-0.498
	c0.317,0,0.604,0.099,0.862,0.296c0.257,0.197,0.459,0.447,0.605,0.75c0.147,0.303,0.26,0.616,0.339,0.941
	c0.08,0.325,0.119,0.631,0.119,0.919c0,0.481-0.104,0.867-0.313,1.158C4.929,4.873,4.591,5.019,4.125,5.019z M6.119,10.435
	c-0.132,0.226-0.311,0.403-0.537,0.53c-0.226,0.127-0.468,0.222-0.725,0.282c-0.257,0.06-0.528,0.09-0.812,0.09
	c-0.308,0-0.613-0.036-0.916-0.108S2.537,11.046,2.261,10.9c-0.277-0.147-0.5-0.348-0.671-0.606
	c-0.171-0.257-0.256-0.549-0.256-0.876c0-0.289,0.065-0.546,0.194-0.772C1.658,8.42,1.824,8.24,2.026,8.105
	C2.228,7.971,2.464,7.86,2.733,7.773c0.27-0.086,0.529-0.146,0.779-0.18s0.505-0.05,0.765-0.05c0.159,0,0.279,0.004,0.36,0.014
	c0.029,0.02,0.102,0.07,0.22,0.151c0.118,0.083,0.197,0.137,0.238,0.166C5.136,7.903,5.21,7.959,5.318,8.041
	c0.108,0.081,0.185,0.143,0.231,0.184c0.045,0.041,0.112,0.103,0.198,0.184s0.15,0.152,0.191,0.212S6.03,8.754,6.09,8.841
	C6.15,8.928,6.192,9.01,6.216,9.089c0.024,0.08,0.047,0.166,0.068,0.26c0.021,0.094,0.033,0.191,0.033,0.292
	C6.317,9.944,6.251,10.208,6.119,10.435z"/>
<path d="M10.154,1.845v-1.846H9.231v1.846H7.384v0.923h1.847v1.846h0.923V2.769H12V1.845H10.154z"/>
</svg>
