<?xml version="1.0" encoding="utf-8"?>
<!-- Generator: Adobe Illustrator 16.0.0, SVG Export Plug-In . SVG Version: 6.00 Build 0)  -->
<!DOCTYPE svg PUBLIC "-//W3C//DTD SVG 1.1//EN" "http://www.w3.org/Graphics/SVG/1.1/DTD/svg11.dtd">
<svg version="1.1" id="Layer_1" xmlns="http://www.w3.org/2000/svg" xmlns:xlink="http://www.w3.org/1999/xlink" x="0px" y="0px"
	 width="20px" height="21px" viewBox="0 0 20 21" enable-background="new 0 0 20 21" xml:space="preserve">
<path d="M10,10.499c1.506,0,2.792-0.513,3.857-1.538c1.066-1.025,1.598-2.263,1.598-3.712
	c0-1.45-0.532-2.687-1.598-3.713C12.792,0.51,11.506-0.002,10-0.002S7.208,0.51,6.143,1.536C5.077,2.562,4.544,3.799,4.544,5.249
	c0,1.449,0.533,2.687,1.599,3.712C7.208,9.986,8.494,10.499,10,10.499z"/>
<path d="M19.953,16.044c-0.034-0.461-0.1-0.958-0.199-1.491c-0.1-0.533-0.225-1.027-0.376-1.483
	c-0.152-0.455-0.355-0.9-0.611-1.333c-0.256-0.433-0.549-0.802-0.881-1.107c-0.332-0.306-0.736-0.549-1.215-0.731
	c-0.479-0.182-1.006-0.274-1.584-0.274c-0.085,0-0.285,0.098-0.597,0.294s-0.665,0.415-1.058,0.656s-0.905,0.46-1.535,0.657
	c-0.629,0.195-1.262,0.294-1.896,0.294s-1.267-0.099-1.897-0.294c-0.629-0.196-1.141-0.415-1.534-0.657s-0.746-0.46-1.059-0.656
	S4.999,9.624,4.913,9.624c-0.578,0-1.105,0.092-1.584,0.274c-0.479,0.182-0.883,0.426-1.215,0.731
	c-0.332,0.306-0.625,0.675-0.881,1.107c-0.255,0.434-0.459,0.878-0.611,1.333c-0.151,0.456-0.277,0.95-0.376,1.483
	s-0.166,1.03-0.199,1.491c-0.033,0.46-0.049,0.932-0.049,1.415c0,1.094,0.346,1.958,1.037,2.591c0.691,0.633,1.61,0.951,2.756,0.951
	h12.418c1.146,0,2.064-0.317,2.756-0.951c0.691-0.634,1.037-1.497,1.037-2.591C20.002,16.976,19.986,16.504,19.953,16.044z"/>
</svg>
