<?xml version="1.0" encoding="utf-8"?>
<!-- Generator: Adobe Illustrator 16.0.0, SVG Export Plug-In . SVG Version: 6.00 Build 0)  -->
<!DOCTYPE svg PUBLIC "-//W3C//DTD SVG 1.1//EN" "http://www.w3.org/Graphics/SVG/1.1/DTD/svg11.dtd">
<svg version="1.1" id="Layer_1" xmlns="http://www.w3.org/2000/svg" xmlns:xlink="http://www.w3.org/1999/xlink" x="0px" y="0px"
	 width="16px" height="16px" viewBox="0 0 16 16" enable-background="new 0 0 16 16" xml:space="preserve">
<path d="M15.645,13.903l-3.298-3.298c0.795-1.147,1.192-2.426,1.192-3.837c0-0.916-0.178-1.793-0.534-2.63
	c-0.356-0.836-0.837-1.558-1.442-2.164c-0.606-0.605-1.327-1.086-2.164-1.442s-1.713-0.534-2.63-0.534
	c-0.917,0-1.793,0.178-2.63,0.534S2.582,1.369,1.976,1.975C1.37,2.581,0.889,3.302,0.533,4.138C0.177,4.975,0,5.852,0,6.768
	c0,0.917,0.178,1.794,0.534,2.63c0.355,0.836,0.836,1.557,1.442,2.163s1.327,1.087,2.164,1.443c0.837,0.356,1.713,0.534,2.63,0.534
	c1.411,0,2.689-0.397,3.837-1.192l3.298,3.289c0.231,0.244,0.519,0.365,0.865,0.365c0.333,0,0.622-0.121,0.865-0.365
	C15.879,15.391,16,15.102,16,14.769C16,14.429,15.882,14.141,15.645,13.903z M9.813,9.812c-0.843,0.843-1.857,1.265-3.043,1.265
	s-2.2-0.421-3.043-1.265C2.883,8.968,2.461,7.955,2.461,6.768c0-1.186,0.421-2.2,1.264-3.043C4.568,2.882,5.583,2.46,6.769,2.46
	S8.97,2.882,9.813,3.725c0.843,0.843,1.265,1.857,1.265,3.043C11.078,7.955,10.656,8.968,9.813,9.812z"/>
</svg>
