<?xml version="1.0" encoding="utf-8"?>
<!-- Generator: Adobe Illustrator 16.0.0, SVG Export Plug-In . SVG Version: 6.00 Build 0)  -->
<!DOCTYPE svg PUBLIC "-//W3C//DTD SVG 1.1//EN" "http://www.w3.org/Graphics/SVG/1.1/DTD/svg11.dtd">
<svg version="1.1" id="Layer_1" xmlns="http://www.w3.org/2000/svg" xmlns:xlink="http://www.w3.org/1999/xlink" x="0px" y="0px"
	 width="10px" height="9px" viewBox="0 0 10 9" enable-background="new 0 0 10 9" xml:space="preserve">
<path d="M9.894,2.987L7.037,0.107C6.966,0.036,6.882,0,6.786,0s-0.18,0.036-0.251,0.107S6.429,0.263,6.429,0.361V1.8
	h-1.25c-2.653,0-4.28,0.756-4.883,2.267C0.099,4.569,0,5.193,0,5.94c0,0.622,0.236,1.468,0.708,2.536
	C0.72,8.502,0.739,8.547,0.767,8.611C0.795,8.675,0.82,8.731,0.842,8.78c0.022,0.049,0.047,0.09,0.073,0.124
	C0.96,8.967,1.012,9,1.071,9c0.056,0,0.1-0.019,0.131-0.057C1.234,8.905,1.25,8.859,1.25,8.803c0-0.034-0.005-0.083-0.014-0.149
	c-0.009-0.066-0.014-0.11-0.014-0.132C1.203,8.267,1.194,8.036,1.194,7.83c0-0.379,0.033-0.718,0.098-1.018
	c0.065-0.3,0.155-0.56,0.271-0.779c0.115-0.22,0.264-0.409,0.446-0.568c0.183-0.16,0.378-0.29,0.589-0.391
	c0.21-0.101,0.458-0.181,0.742-0.239c0.285-0.058,0.571-0.099,0.859-0.121C4.487,4.691,4.814,4.68,5.179,4.68h1.25v1.44
	c0,0.097,0.035,0.182,0.106,0.253S6.689,6.48,6.786,6.48s0.181-0.036,0.251-0.107l2.857-2.88C9.965,3.422,10,3.337,10,3.24
	C10,3.143,9.965,3.059,9.894,2.987z"/>
</svg>
