<?xml version="1.0" encoding="utf-8"?>
<!-- Generator: Adobe Illustrator 16.0.0, SVG Export Plug-In . SVG Version: 6.00 Build 0)  -->
<!DOCTYPE svg PUBLIC "-//W3C//DTD SVG 1.1//EN" "http://www.w3.org/Graphics/SVG/1.1/DTD/svg11.dtd">
<svg version="1.1" id="Layer_1" xmlns="http://www.w3.org/2000/svg" xmlns:xlink="http://www.w3.org/1999/xlink" x="0px" y="0px"
	 width="20px" height="20px" viewBox="0 0 20 20" enable-background="new 0 0 20 20" xml:space="preserve">
<path d="M18.66,4.979c-0.894-1.533-2.107-2.746-3.64-3.641C13.488,0.445,11.815-0.002,10-0.002
	c-1.814,0-3.488,0.447-5.02,1.341C3.448,2.233,2.234,3.446,1.34,4.979C0.446,6.511-0.001,8.185-0.001,10
	c0,1.814,0.447,3.487,1.341,5.02c0.895,1.532,2.107,2.746,3.64,3.64C6.512,19.554,8.186,20,10,20s3.488-0.447,5.021-1.341
	c1.532-0.894,2.745-2.107,3.64-3.64c0.894-1.533,1.341-3.206,1.341-5.02C20.001,8.185,19.554,6.511,18.66,4.979z M16.134,13.554
	c-0.634,1.085-1.493,1.945-2.579,2.579c-1.085,0.633-2.27,0.951-3.555,0.951c-1.285,0-2.47-0.317-3.555-0.951
	C5.36,15.499,4.5,14.64,3.867,13.554C3.232,12.47,2.916,11.284,2.916,10c0-1.285,0.317-2.47,0.951-3.556
	C4.5,5.359,5.36,4.499,6.445,3.865C7.53,3.232,8.715,2.915,10,2.915s2.47,0.317,3.555,0.95c1.085,0.634,1.945,1.494,2.579,2.579
	c0.634,1.086,0.95,2.271,0.95,3.556C17.084,11.284,16.768,12.47,16.134,13.554z"/>
<path d="M11.25,4.999h-0.833c-0.122,0-0.222,0.039-0.3,0.117C10.039,5.194,10,5.293,10,5.416V10H7.083
	c-0.122,0-0.221,0.039-0.3,0.117c-0.078,0.079-0.117,0.178-0.117,0.3v0.833c0,0.123,0.039,0.222,0.117,0.3
	c0.079,0.078,0.178,0.116,0.3,0.116h4.167c0.122,0,0.221-0.039,0.299-0.116c0.078-0.078,0.117-0.178,0.117-0.3V5.416
	c0-0.121-0.039-0.222-0.117-0.3C11.472,5.038,11.372,4.999,11.25,4.999z"/>
</svg>
