<?xml version="1.0" encoding="utf-8"?>
<!-- Generator: Adobe Illustrator 16.0.0, SVG Export Plug-In . SVG Version: 6.00 Build 0)  -->
<!DOCTYPE svg PUBLIC "-//W3C//DTD SVG 1.1//EN" "http://www.w3.org/Graphics/SVG/1.1/DTD/svg11.dtd">
<svg version="1.1" id="Layer_1" xmlns="http://www.w3.org/2000/svg" xmlns:xlink="http://www.w3.org/1999/xlink" x="0px" y="0px"
	 width="15px" height="12px" viewBox="0 0 15 12" enable-background="new 0 0 15 12" xml:space="preserve">
<path d="M15.001,1.426c-0.59,0.25-1.181,0.406-1.771,0.469c0.667-0.394,1.117-0.95,1.352-1.668
	c-0.609,0.356-1.26,0.6-1.952,0.731c-0.609-0.637-1.358-0.956-2.247-0.956c-0.85,0-1.575,0.296-2.175,0.886
	c-0.6,0.59-0.899,1.304-0.899,2.142c0,0.224,0.025,0.456,0.076,0.693C6.129,3.659,4.95,3.349,3.849,2.79
	C2.748,2.23,1.813,1.485,1.045,0.554C0.766,1.022,0.626,1.532,0.626,2.082c0,0.519,0.124,1,0.372,1.443s0.581,0.803,1,1.078
	c-0.495-0.019-0.958-0.147-1.39-0.384v0.038c0,0.73,0.233,1.373,0.699,1.926c0.467,0.553,1.055,0.902,1.766,1.044
	C2.807,7.296,2.537,7.33,2.264,7.33c-0.178,0-0.372-0.016-0.581-0.047C1.88,7.89,2.242,8.388,2.769,8.778s1.124,0.592,1.79,0.604
	c-1.117,0.862-2.389,1.293-3.817,1.293c-0.273,0-0.52-0.012-0.742-0.038C1.426,11.545,3,11.997,4.72,11.997
	c1.092,0,2.117-0.169,3.075-0.51c0.958-0.341,1.777-0.797,2.456-1.369c0.679-0.571,1.265-1.229,1.756-1.973
	c0.492-0.743,0.858-1.52,1.1-2.329c0.241-0.81,0.362-1.62,0.362-2.433c0-0.175-0.003-0.306-0.01-0.394
	C14.062,2.56,14.576,2.038,15.001,1.426z"/>
</svg>
