<?xml version="1.0" encoding="utf-8"?>
<!-- Generator: Adobe Illustrator 16.0.0, SVG Export Plug-In . SVG Version: 6.00 Build 0)  -->
<!DOCTYPE svg PUBLIC "-//W3C//DTD SVG 1.1//EN" "http://www.w3.org/Graphics/SVG/1.1/DTD/svg11.dtd">
<svg version="1.1" id="Layer_1" xmlns="http://www.w3.org/2000/svg" xmlns:xlink="http://www.w3.org/1999/xlink" x="0px" y="0px"
	 width="38px" height="38px" viewBox="0 0 38 38" enable-background="new 0 0 38 38" xml:space="preserve">
<path d="M37.772,36.748l-8.661-8.662c2.702-2.945,4.365-6.86,4.365-11.173
	c0-9.141-7.409-16.55-16.548-16.55c-9.14,0-16.549,7.409-16.549,16.55c0,9.142,7.409,16.55,16.549,16.55
	c4.311,0,8.224-1.662,11.169-4.363l8.661,8.662c0.28,0.28,0.734,0.28,1.014,0C38.053,37.482,38.053,37.028,37.772,36.748z
	 M1.884,16.913c0-8.309,6.735-15.046,15.044-15.046c8.309,0,15.044,6.737,15.044,15.046c0,8.31-6.735,15.045-15.044,15.045
	C8.62,31.958,1.884,25.222,1.884,16.913z"/>
</svg>
