<svg xmlns="http://www.w3.org/2000/svg" width="96" height="22" viewBox="0 0 96 22">
  <path fill="#ffffff" d="M23.525,16.425a0.878,0.878,0,0,0-.675.35,12.105,12.105,0,0,1-1.825,1.838,2.521,2.521,0,0,1-1.525.537,2.161,2.161,0,0,1-1.587-.7,8.024,8.024,0,0,1-1.388-2.2,8.756,8.756,0,0,0-1.3-2.125,3.718,3.718,0,0,0-1.85-1.05A8.9,8.9,0,0,0,16.6,11.55a6.813,6.813,0,0,0,1.987-2.363A6.1,6.1,0,0,0,19.25,6.45a5.36,5.36,0,0,0-.788-2.875,5.237,5.237,0,0,0-2.412-2A9.88,9.88,0,0,0,12.025.85,11.434,11.434,0,0,0,5.938,2.463a10.745,10.745,0,0,0-4.1,4.663,16.623,16.623,0,0,0-1.462,7.25,10.8,10.8,0,0,0,.7,4.012,6.29,6.29,0,0,0,1.988,2.75,4.733,4.733,0,0,0,2.963.988A2.949,2.949,0,0,0,8.3,21.313a4.426,4.426,0,0,0,1-2.337q0.05-.275.25-1.525,0.475-2.775.575-3.3a2.261,2.261,0,0,1,1.137.425,3.961,3.961,0,0,1,.938,1.163q0.475,0.813,1.3,2.512a8.279,8.279,0,0,0,2.162,3,4.394,4.394,0,0,0,2.763.875,5.247,5.247,0,0,0,2.9-.788A10.824,10.824,0,0,0,23.75,19.1a2.36,2.36,0,0,0,.475-1.55,1.551,1.551,0,0,0-.187-0.825,0.578,0.578,0,0,0-.513-0.3h0ZM6,17.875a2.914,2.914,0,0,1-.338,1.05,0.627,0.627,0,0,1-.537.325,1.271,1.271,0,0,1-.9-0.575,4.753,4.753,0,0,1-.8-1.725A10.193,10.193,0,0,1,3.1,14.2,14.714,14.714,0,0,1,4.125,8.388a7.894,7.894,0,0,1,2.863-3.6,7.605,7.605,0,0,1,4.288-1.212,4.8,4.8,0,0,1,3.15.9A3.055,3.055,0,0,1,15.5,6.95a4.191,4.191,0,0,1-.662,2.325,4.572,4.572,0,0,1-1.775,1.6,6.023,6.023,0,0,1-2.463.65l0.75-4.15a2.783,2.783,0,0,0,.025-0.425A1.2,1.2,0,0,0,9.95,5.675,1.893,1.893,0,0,0,7.85,7.3Q7.5,9.075,7.1,11.525H6.475a1.286,1.286,0,0,0-.887.35,1.216,1.216,0,0,0-.388.95,1.422,1.422,0,0,0,.313.9,1.405,1.405,0,0,0,1.162.4Zm29.35-1.45a0.878,0.878,0,0,0-.675.35,8.465,8.465,0,0,1-2.487,2.063,5.468,5.468,0,0,1-2.562.788,2.454,2.454,0,0,1-2.375-1.15,8.949,8.949,0,0,0,4.188-1.963,4.042,4.042,0,0,0,1.237-2.962,3.134,3.134,0,0,0-.875-2.338,3.169,3.169,0,0,0-2.325-.863,5.061,5.061,0,0,0-2.913.875,5.937,5.937,0,0,0-2.012,2.363,7.231,7.231,0,0,0-.725,3.213,5.218,5.218,0,0,0,1.45,3.9,5.566,5.566,0,0,0,4.075,1.425,7.245,7.245,0,0,0,3.612-.95A9.133,9.133,0,0,0,35.575,19.1a2.3,2.3,0,0,0,.475-1.55,1.551,1.551,0,0,0-.187-0.825,0.578,0.578,0,0,0-.512-0.3h0ZM29.05,12.8a0.918,0.918,0,0,1,.712.287,1.088,1.088,0,0,1,.262.762,2.064,2.064,0,0,1-.85,1.625,5.679,5.679,0,0,1-2.325,1.05v-0.05a5.012,5.012,0,0,1,.637-2.6A1.832,1.832,0,0,1,29.05,12.8h0Zm9.25,9.325a1.439,1.439,0,0,0,1.138-.413,3.9,3.9,0,0,0,.638-1.587,17.2,17.2,0,0,1,.987-2.9,13.427,13.427,0,0,1,1.2-2.213,1.646,1.646,0,0,1,.912-0.837q0.275,0,.275.4a12.967,12.967,0,0,1-.325,2.175,15.58,15.58,0,0,0-.35,2.5,3.135,3.135,0,0,0,.65,2.137,2.43,2.43,0,0,0,1.925.738,4.849,4.849,0,0,0,2.813-.85A11.053,11.053,0,0,0,50.475,19.1a2.3,2.3,0,0,0,.475-1.55,1.551,1.551,0,0,0-.187-0.825,0.578,0.578,0,0,0-.513-0.3,0.878,0.878,0,0,0-.675.35,20.066,20.066,0,0,1-1.838,1.988,1.953,1.953,0,0,1-1.187.613q-0.725,0-.725-1A17.339,17.339,0,0,1,46.3,15.5a20.118,20.118,0,0,0,.55-3.525,1.436,1.436,0,0,0-1.625-1.625,3.661,3.661,0,0,0-1.812.575A7.253,7.253,0,0,0,41.4,12.85a14.208,14.208,0,0,0-1.85,3.5,17.866,17.866,0,0,1,.25-1.85q0.15-.75.4-1.75a9.526,9.526,0,0,0,.375-1.8,0.517,0.517,0,0,0-.2-0.475,1.411,1.411,0,0,0-.7-0.125,2.6,2.6,0,0,0-1.437.338A1.881,1.881,0,0,0,37.5,11.75a20.356,20.356,0,0,0-.925,6.175,9.574,9.574,0,0,0,.387,3.2,1.365,1.365,0,0,0,1.337,1h0Zm25.875-7.8a1.475,1.475,0,0,0-.35.05,15.136,15.136,0,0,1-2.8.5,5.624,5.624,0,0,0-1.362-3.238A3.894,3.894,0,0,0,56.6,10.325a5.037,5.037,0,0,0-2.825.838,5.7,5.7,0,0,0-2,2.325,7.632,7.632,0,0,0-.725,3.387,6.162,6.162,0,0,0,.55,2.6A4.6,4.6,0,0,0,53.212,21.4a4.434,4.434,0,0,0,2.563.725,4.613,4.613,0,0,0,3.175-1.262A6.241,6.241,0,0,0,60.824,17.5a11.382,11.382,0,0,0,3.3-.6,1.284,1.284,0,0,0,.725-1.425,1.733,1.733,0,0,0-.175-0.825,0.546,0.546,0,0,0-.5-0.325h0Zm-8.2,5.15a1.551,1.551,0,0,1-1.263-.725,3.485,3.485,0,0,1-.538-2.1,4.745,4.745,0,0,1,.663-2.712,1.963,1.963,0,0,1,1.663-.963h0.125a4.336,4.336,0,0,0-.075.8,4.069,4.069,0,0,0,.413,1.8,3.449,3.449,0,0,0,1.188,1.375,3.612,3.612,0,0,1-.788,1.875,1.813,1.813,0,0,1-1.387.65h0Zm11,2.65a1.439,1.439,0,0,0,1.138-.413,3.9,3.9,0,0,0,.638-1.587,22.055,22.055,0,0,1,.862-2.75,12.894,12.894,0,0,1,1.112-2.3,1.594,1.594,0,0,1,.95-0.9q0.275,0,.275.4,0,0.5-.2,2.1a21.614,21.614,0,0,0-.25,2.75,4.079,4.079,0,0,0,.412,1.912,1.324,1.324,0,0,0,1.237.788,1.5,1.5,0,0,0,1.163-.4,3.82,3.82,0,0,0,.638-1.6,17.971,17.971,0,0,1,.975-2.9,12.3,12.3,0,0,1,1.2-2.213,1.682,1.682,0,0,1,.925-0.837q0.275,0,.275.4A12.967,12.967,0,0,1,78,16.75a15.58,15.58,0,0,0-.35,2.5,3.135,3.135,0,0,0,.65,2.137,2.43,2.43,0,0,0,1.925.738,4.849,4.849,0,0,0,2.813-.85A11.053,11.053,0,0,0,85.349,19.1a2.3,2.3,0,0,0,.475-1.55,1.551,1.551,0,0,0-.187-0.825,0.578,0.578,0,0,0-.513-0.3,0.878,0.878,0,0,0-.675.35,20.066,20.066,0,0,1-1.838,1.988,1.953,1.953,0,0,1-1.187.613q-0.725,0-.725-1a17.339,17.339,0,0,1,.475-2.875,20.118,20.118,0,0,0,.55-3.525A1.436,1.436,0,0,0,80.1,10.35a4.4,4.4,0,0,0-2.85,1.4,12.377,12.377,0,0,0-2.775,4.475q0.075-.45.275-1.35a15.859,15.859,0,0,0,.475-2.9,1.78,1.78,0,0,0-.362-1.225,1.612,1.612,0,0,0-1.237-.4,3.384,3.384,0,0,0-1.862.662,7.594,7.594,0,0,0-1.925,2.013,13.528,13.528,0,0,0-1.612,3.3,17.267,17.267,0,0,1,.25-1.837q0.15-.737.4-1.738a9.526,9.526,0,0,0,.375-1.8,0.517,0.517,0,0,0-.2-0.475,1.411,1.411,0,0,0-.7-0.125,2.6,2.6,0,0,0-1.437.338,1.881,1.881,0,0,0-.737,1.063,20.356,20.356,0,0,0-.925,6.175,9.574,9.574,0,0,0,.388,3.2,1.365,1.365,0,0,0,1.337,1h0Zm28.275-4.95a0.86,0.86,0,0,0-.675.375,8.172,8.172,0,0,1-1.537,1.6,2.825,2.825,0,0,1-1.687.475,2.1,2.1,0,0,1-2.025-1.15,8.974,8.974,0,0,0,4.213-1.963,4.042,4.042,0,0,0,1.237-2.962,3.134,3.134,0,0,0-.875-2.338,3.169,3.169,0,0,0-2.325-.863,5.061,5.061,0,0,0-2.912.875,5.937,5.937,0,0,0-2.013,2.363,7.231,7.231,0,0,0-.725,3.213,5.51,5.51,0,0,0,1.325,3.887,4.812,4.812,0,0,0,3.725,1.438,5.742,5.742,0,0,0,2.713-.6,4.868,4.868,0,0,0,1.837-1.675,2.77,2.77,0,0,0,.425-1.55,1.551,1.551,0,0,0-.187-0.825,0.578,0.578,0,0,0-.512-0.3h0Zm-4.1-4.375a0.918,0.918,0,0,1,.713.287,1.088,1.088,0,0,1,.263.762,2.064,2.064,0,0,1-.85,1.625,5.679,5.679,0,0,1-2.325,1.05v-0.05a5.012,5.012,0,0,1,.638-2.6A1.832,1.832,0,0,1,91.149,12.8h0Z"/>
</svg>
